<svg width="20" height="20" viewBox="0 0 20 20" fill="none" xmlns="http://www.w3.org/2000/svg">
<g clip-path="url(#clip0_4661_105)">
<path fill-rule="evenodd" clip-rule="evenodd" d="M0.367641 10.1072C0.367353 9.61233 0.764495 9.21092 1.25468 9.21063L16.306 9.20167L10.6536 3.50201C10.3068 3.15229 10.3065 2.58494 10.6529 2.23481C10.9993 1.88467 11.5613 1.88434 11.9081 2.23406L19.0765 9.46246C19.1616 9.54832 19.2259 9.6473 19.2693 9.75296C19.3117 9.85618 19.3357 9.96916 19.3368 10.0876C19.3368 10.0932 19.3368 10.0987 19.3368 10.1042C19.3358 10.2227 19.312 10.3357 19.2697 10.4389C19.2264 10.5447 19.1623 10.6437 19.0772 10.7297L11.9173 17.9666C11.5708 18.3167 11.0089 18.3171 10.6621 17.9673C10.3152 17.6176 10.3149 17.0503 10.6613 16.7001L16.307 10.9938L1.25573 11.0027C0.76554 11.003 0.36793 10.6021 0.367641 10.1072Z" fill="black"/>
</g>
<defs>
<clipPath id="clip0_4661_105">
<rect width="20" height="20" fill="white"/>
</clipPath>
</defs>
</svg>
