<svg width="20" height="17" viewBox="0 0 20 17" fill="none" xmlns="http://www.w3.org/2000/svg">
<path fill-rule="evenodd" clip-rule="evenodd" d="M1.14624e-08 1.54545C1.14624e-08 0.691923 0.688793 0 1.53846 0H18.4615C19.3112 0 20 0.691923 20 1.54545V15.4545C20 16.3081 19.3112 17 18.4615 17H1.53846C0.688793 17 1.14624e-08 16.3081 1.14624e-08 15.4545V1.54545ZM18.4615 1.54545H1.53846V15.4545H18.4615V1.54545Z" fill="black"/>
<path fill-rule="evenodd" clip-rule="evenodd" d="M5.55967 6.62178C5.74785 6.54263 5.94983 6.50187 6.15385 6.50187C6.35786 6.50187 6.55984 6.54263 6.74803 6.62178C6.93515 6.70049 7.10491 6.81559 7.24756 6.96044L11.5385 11.2709L11.5426 11.2667L13.5217 9.27855C13.6644 9.13373 13.8341 9.01866 14.0212 8.93997C14.2094 8.86082 14.4114 8.82005 14.6154 8.82005C14.8194 8.82005 15.0214 8.86082 15.2096 8.93997C15.3967 9.01866 15.5664 9.13373 15.709 9.27855L19.7747 13.3627C20.0751 13.6645 20.0751 14.1537 19.7747 14.4555C19.4743 14.7573 18.9872 14.7573 18.6868 14.4555L14.6154 10.3655L14.6113 10.3697L12.6346 12.3553L12.6322 12.3577C12.4895 12.5026 12.3198 12.6177 12.1326 12.6964C11.9445 12.7756 11.7425 12.8163 11.5385 12.8163C11.3344 12.8163 11.1325 12.7756 10.9443 12.6964C10.7572 12.6177 10.5874 12.5026 10.4447 12.3577L6.15383 8.04734L6.14971 8.05154L1.31316 12.91C1.01276 13.2118 0.525706 13.2118 0.225302 12.91C-0.0751008 12.6083 -0.0751008 12.119 0.225302 11.8172L5.0601 6.96048C5.20275 6.8156 5.37253 6.70049 5.55967 6.62178Z" fill="black"/>
<path d="M12.6923 6.95455C13.3296 6.95455 13.8462 6.4356 13.8462 5.79545C13.8462 5.15531 13.3296 4.63636 12.6923 4.63636C12.0551 4.63636 11.5385 5.15531 11.5385 5.79545C11.5385 6.4356 12.0551 6.95455 12.6923 6.95455Z" fill="black"/>
</svg>
