<svg width="20" height="20" viewBox="0 0 20 20" fill="none" xmlns="http://www.w3.org/2000/svg">
<path fill-rule="evenodd" clip-rule="evenodd" d="M2 3C1.44772 3 1 3.44772 1 4C1 4.55228 1.44772 5 2 5H18C18.5523 5 19 4.55228 19 4C19 3.44772 18.5523 3 18 3H2ZM1 10C1 9.44772 1.44772 9 2 9H18C18.5523 9 19 9.44772 19 10C19 10.5523 18.5523 11 18 11H2C1.44772 11 1 10.5523 1 10ZM1 16C1 15.4477 1.44772 15 2 15H18C18.5523 15 19 15.4477 19 16C19 16.5523 18.5523 17 18 17H2C1.44772 17 1 16.5523 1 16Z" fill="#E63036"/>
</svg>
