<svg width="20" height="20" viewBox="0 0 20 20" fill="none" xmlns="http://www.w3.org/2000/svg">
<path fill-rule="evenodd" clip-rule="evenodd" d="M3.6617 0.000396504C3.37262 -0.00598174 3.08704 0.0646916 2.83442 0.205161C2.5818 0.345633 2.37125 0.550833 2.22455 0.799641C2.07785 1.04846 2.00032 1.33196 2 1.62069V18.3794C2.00032 18.6681 2.07785 18.9515 2.22455 19.2004C2.37125 19.4492 2.5818 19.6544 2.83442 19.7948C3.08704 19.9353 3.37262 20.006 3.6617 19.9996C3.95006 19.9932 4.23161 19.9104 4.47734 19.7596L4.47908 19.7586L17.2142 11.3837C17.4524 11.2413 17.6499 11.0401 17.7876 10.7993C17.9268 10.5558 18 10.2803 18 10C18 9.71965 17.9268 9.44416 17.7876 9.2007C17.6499 8.95991 17.4524 8.75869 17.2142 8.61634L4.48163 0.24301L4.47754 0.240493C4.23175 0.089624 3.95017 0.00676127 3.6617 0.000396504Z" fill="black"/>
</svg>
