<svg width="20" height="20" viewBox="0 0 20 20" fill="none" xmlns="http://www.w3.org/2000/svg">
<g clip-path="url(#clip0_4661_417)">
<path fill-rule="evenodd" clip-rule="evenodd" d="M8.84614 1.53846C4.81022 1.53846 1.53846 4.81022 1.53846 8.84614C1.53846 12.8821 4.81022 16.1538 8.84614 16.1538C12.8821 16.1538 16.1538 12.8821 16.1538 8.84614C16.1538 4.81022 12.8821 1.53846 8.84614 1.53846ZM0 8.84614C0 3.96055 3.96055 0 8.84614 0C13.7317 0 17.6923 3.96055 17.6923 8.84614C17.6923 13.7317 13.7317 17.6923 8.84614 17.6923C3.96055 17.6923 0 13.7317 0 8.84614Z" fill="#E63036"/>
<path fill-rule="evenodd" clip-rule="evenodd" d="M14.0136 14.0138C14.314 13.7134 14.801 13.7134 15.1014 14.0138L19.7745 18.6868C20.0749 18.9872 20.0749 19.4743 19.7745 19.7747C19.4741 20.0751 18.9871 20.0751 18.6867 19.7747L14.0136 15.1016C13.7132 14.8012 13.7132 14.3142 14.0136 14.0138Z" fill="#E63036"/>
</g>
<defs>
<clipPath id="clip0_4661_417">
<rect width="20" height="20" fill="white"/>
</clipPath>
</defs>
</svg>
