<svg width="20" height="14" viewBox="0 0 20 14" fill="none" xmlns="http://www.w3.org/2000/svg">
<path d="M0.836347 13.9209C0.278782 13.9209 0 13.8089 0 13.5847C0 13.5452 0.00648329 13.5056 0.0194499 13.4661C0.0324165 13.4134 0.0453832 13.3606 0.0583498 13.3079L4.66798 0.316384C4.73282 0.105461 4.99215 0 5.44598 0H6.01003C6.46386 0 6.72319 0.105461 6.78803 0.316384L11.3977 13.3277C11.4366 13.42 11.456 13.5056 11.456 13.5847C11.456 13.8089 11.1772 13.9209 10.6197 13.9209H10.4641C10.2696 13.9209 10.101 13.9011 9.95837 13.8616C9.81573 13.8089 9.72497 13.7232 9.68607 13.6045L8.53852 10.3616H2.82024L1.71159 13.6045C1.67269 13.7232 1.58193 13.8089 1.43929 13.8616C1.29666 13.9011 1.1281 13.9209 0.933597 13.9209H0.836347ZM3.36484 8.85876H8.01337L5.97113 2.9661C5.91926 2.78154 5.87388 2.59039 5.83498 2.39266C5.79608 2.19492 5.76366 2.00377 5.73773 1.81921H5.69883C5.65993 2.00377 5.61455 2.19492 5.56268 2.39266C5.52378 2.59039 5.47191 2.78154 5.40708 2.9661L3.36484 8.85876Z" fill="black"/>
<path d="M15.0014 14C14.0548 14 13.2638 13.7627 12.6285 13.2881C11.9931 12.8004 11.6754 12.049 11.6754 11.0339C11.6754 10.2034 11.8699 9.55085 12.2589 9.07627C12.6479 8.58851 13.1601 8.23258 13.7955 8.00847C14.4308 7.77119 15.1246 7.61959 15.8766 7.55367C16.6416 7.48776 17.3937 7.44821 18.1328 7.43503V6.50565C18.1328 6.05744 17.9772 5.66855 17.666 5.33898C17.3548 5.00942 16.7972 4.84463 15.9933 4.84463C15.4098 4.84463 14.8976 4.91714 14.4568 5.06215C14.0289 5.19397 13.6853 5.33239 13.4259 5.4774C13.1796 5.60923 13.024 5.67514 12.9591 5.67514C12.8684 5.67514 12.7711 5.60923 12.6674 5.4774C12.5636 5.34557 12.4729 5.20056 12.3951 5.04237C12.3173 4.871 12.2784 4.75235 12.2784 4.68644C12.2784 4.51507 12.4469 4.33051 12.7841 4.13277C13.1212 3.93503 13.5686 3.77024 14.1261 3.63842C14.6837 3.49341 15.2866 3.4209 15.935 3.4209C16.7389 3.4209 17.4261 3.54614 17.9967 3.79661C18.5672 4.0339 19.0016 4.38324 19.2998 4.84463C19.611 5.30603 19.7666 5.86629 19.7666 6.52542V10.9548C19.7666 11.4953 19.7861 11.9435 19.8249 12.2994C19.8638 12.6554 19.9028 12.9256 19.9417 13.1102C19.9806 13.2947 20 13.4068 20 13.4463C20 13.5386 19.9546 13.6177 19.8639 13.6836C19.7861 13.7363 19.6888 13.7825 19.5721 13.822C19.4554 13.8484 19.3387 13.8682 19.222 13.8814C19.1053 13.8945 19.0145 13.9011 18.9497 13.9011C18.7941 13.9011 18.6709 13.8286 18.5802 13.6836C18.5024 13.5254 18.4375 13.3409 18.3857 13.1299C18.3468 12.9058 18.3079 12.7015 18.269 12.5169C18.0226 12.7938 17.7373 13.0443 17.4132 13.2684C17.089 13.4925 16.7259 13.6704 16.324 13.8023C15.935 13.9341 15.4941 14 15.0014 14ZM15.0792 12.5565C15.7923 12.5565 16.3823 12.4181 16.8491 12.1412C17.3159 11.8644 17.7438 11.548 18.1328 11.1921V8.85876C17.6271 8.85876 17.102 8.87853 16.5574 8.91808C16.0128 8.94444 15.5006 9.01695 15.0208 9.13559C14.5411 9.25424 14.1521 9.45857 13.8538 9.74859C13.5686 10.0254 13.4259 10.4209 13.4259 10.935C13.4259 11.4623 13.5621 11.8644 13.8344 12.1412C14.1196 12.4181 14.5346 12.5565 15.0792 12.5565Z" fill="black"/>
</svg>
