<svg width="16" height="16" viewBox="0 0 16 16" fill="none" xmlns="http://www.w3.org/2000/svg">
<g clip-path="url(#clip0_4623_8)">
<path fill-rule="evenodd" clip-rule="evenodd" d="M13.4302 5.70205C13.4302 7.74859 12.4161 9.54925 10.8844 10.5771C11.4388 10.7767 11.9758 11.0326 12.4874 11.3428C13.8757 12.1845 15.0281 13.3949 15.8291 14.8519C16.0153 15.1907 15.9062 15.6256 15.5798 15.8234C15.2509 16.0227 14.8323 15.9027 14.6449 15.5618C13.963 14.3212 12.9822 13.2915 11.8017 12.5758C10.6212 11.8601 9.28234 11.4842 7.91974 11.4842C6.55714 11.4842 5.21844 11.8601 4.03798 12.5758C2.85747 13.2915 1.87673 14.3212 1.19473 15.5618C1.00735 15.9027 0.588759 16.0227 0.259921 15.8234C-0.0664845 15.6256 -0.175636 15.1907 0.0106013 14.8519C0.811558 13.3949 1.96396 12.1845 3.35233 11.3428C3.86387 11.0326 4.40077 10.7767 4.95512 10.5771C3.42339 9.54929 2.40923 7.74861 2.40923 5.70205C2.40923 2.51236 4.87277 -0.0800781 7.91974 -0.0800781C10.9667 -0.0800781 13.4302 2.51236 13.4302 5.70205ZM3.7746 5.70205C3.7746 3.29239 5.63404 1.34565 7.91974 1.34565C10.2054 1.34565 12.0649 3.29239 12.0649 5.70205C12.0649 8.11172 10.2054 10.0585 7.91974 10.0585C5.63404 10.0585 3.7746 8.11172 3.7746 5.70205Z" fill="black"/>
</g>
<defs>
<clipPath id="clip0_4623_8">
<rect width="16" height="16" fill="white"/>
</clipPath>
</defs>
</svg>
