<svg width="273" height="40" viewBox="0 0 273 40" fill="none" xmlns="http://www.w3.org/2000/svg">
<g clip-path="url(#clip0_124_3626)">
<path fill-rule="evenodd" clip-rule="evenodd" d="M43.7248 40C43.4049 40 43.0981 39.9289 42.8714 39.8023C42.6448 39.6757 42.5169 39.5039 42.5156 39.3244V0.67555C42.5169 0.496141 42.6448 0.324321 42.8714 0.197706C43.0981 0.0710908 43.4049 0 43.7248 0C44.0442 0 44.3506 0.0711766 44.5764 0.197867C44.8023 0.324557 44.9292 0.496383 44.9292 0.67555V39.3244C44.9292 39.5036 44.8023 39.6754 44.5764 39.8021C44.3506 39.9288 44.0442 40 43.7248 40ZM30.3701 20.0564V5.85133C30.3714 5.67192 30.4993 5.50009 30.7259 5.37348C30.9526 5.24686 31.2594 5.17578 31.5793 5.17578C31.8987 5.17578 32.2051 5.24695 32.4309 5.37364C32.6568 5.50033 32.7837 5.67216 32.7837 5.85133V34.1506C32.7837 34.3297 32.6568 34.5016 32.4309 34.6283C32.2051 34.755 31.8987 34.8261 31.5793 34.8261C31.2594 34.8261 30.9526 34.755 30.7259 34.6284C30.4993 34.5018 30.3714 34.33 30.3701 34.1506V20.0564ZM12.1465 6.56618V20.0561V33.4352C12.1459 33.524 12.1766 33.612 12.2369 33.6941C12.2972 33.7762 12.3859 33.8508 12.4979 33.9136C12.6098 33.9764 12.7429 34.0262 12.8893 34.06C13.0357 34.0938 13.1926 34.1111 13.3509 34.1107C13.5095 34.1111 13.6666 34.0938 13.8133 34.06C13.96 34.0263 14.0933 33.9765 14.2057 33.9138C14.318 33.851 14.4071 33.7764 14.468 33.6943C14.5288 33.6122 14.5601 33.5241 14.5601 33.4352V6.56618C14.5601 6.47724 14.5288 6.38918 14.468 6.30704C14.4071 6.22491 14.318 6.15033 14.2057 6.08756C14.0933 6.0248 13.96 5.97509 13.8133 5.94129C13.6666 5.9075 13.5095 5.89028 13.3509 5.89063C13.1926 5.89028 13.0357 5.90752 12.8893 5.94134C12.7429 5.97517 12.6098 6.02492 12.4979 6.08772C12.3859 6.15052 12.2972 6.22513 12.2369 6.30725C12.1766 6.38937 12.1459 6.47737 12.1465 6.56618ZM6.07339 20.0552V13.5609C6.07089 13.4713 6.1002 13.3823 6.15961 13.2992C6.21902 13.216 6.30735 13.1402 6.41944 13.0764C6.53153 13.0125 6.66516 12.9618 6.81253 12.9272C6.9599 12.8926 7.11807 12.8748 7.27784 12.8748C7.59771 12.8748 7.90455 12.9459 8.13118 13.0725C8.3578 13.1991 8.48575 13.371 8.48699 13.5504V26.428C8.49139 26.5187 8.46337 26.6088 8.40458 26.6933C8.34578 26.7777 8.25742 26.8546 8.1447 26.9196C8.03197 26.9845 7.89719 27.0361 7.7483 27.0714C7.59941 27.1066 7.43944 27.1247 7.27784 27.1247C6.9584 27.1247 6.65204 27.0535 6.42617 26.9268C6.20029 26.8002 6.07339 26.6283 6.07339 26.4492V20.0552ZM0 20.0557V17.8496C0.00124464 17.6702 0.129187 17.4983 0.355812 17.3717C0.582438 17.2451 0.889279 17.174 1.20915 17.174C1.52859 17.174 1.83495 17.2452 2.06082 17.3719C2.2867 17.4986 2.4136 17.6704 2.4136 17.8496V22.1509C2.4136 22.3301 2.2867 22.5019 2.06082 22.6286C1.83495 22.7553 1.52859 22.8265 1.20915 22.8265C0.889279 22.8265 0.582438 22.7554 0.355812 22.6288C0.129187 22.5022 0.00124464 22.3303 0 22.1509V20.0557ZM18.2197 20.0553V11.4921C18.2197 11.313 18.3466 11.1411 18.5725 11.0145C18.7984 10.8878 19.1047 10.8166 19.4242 10.8166C19.7436 10.8166 20.05 10.8878 20.2758 11.0145C20.5017 11.1411 20.6286 11.313 20.6286 11.4921V28.5076C20.6286 28.6867 20.5017 28.8586 20.2758 28.9853C20.05 29.112 19.7436 29.1831 19.4242 29.1831C19.1047 29.1831 18.7984 29.112 18.5725 28.9853C18.3466 28.8586 18.2197 28.6867 18.2197 28.5076V20.0553ZM24.2969 14.768V20.0458V25.2338C24.2963 25.3227 24.327 25.4109 24.3872 25.4931C24.4475 25.5754 24.5361 25.6502 24.648 25.7132C24.7599 25.7762 24.8929 25.8262 25.0393 25.8603C25.1858 25.8944 25.3428 25.912 25.5013 25.912C25.822 25.912 26.1296 25.8405 26.3563 25.7133C26.5831 25.5862 26.7105 25.4137 26.7105 25.2338V14.768C26.7105 14.5882 26.5831 14.4157 26.3563 14.2885C26.1296 14.1613 25.822 14.0898 25.5013 14.0898C25.3428 14.0898 25.1858 14.1074 25.0393 14.1415C24.8929 14.1756 24.7599 14.2256 24.648 14.2886C24.5361 14.3516 24.4475 14.4264 24.3872 14.5087C24.327 14.591 24.2963 14.6791 24.2969 14.768ZM36.4424 11.4921V20.0553V28.5076C36.4436 28.687 36.5716 28.8588 36.7982 28.9854C37.0248 29.112 37.3317 29.1831 37.6515 29.1831C37.971 29.1831 38.2773 29.112 38.5032 28.9853C38.7291 28.8586 38.856 28.6867 38.856 28.5076V11.4921C38.856 11.313 38.7291 11.1411 38.5032 11.0145C38.2773 10.8878 37.971 10.8166 37.6515 10.8166C37.3317 10.8166 37.0248 10.8877 36.7982 11.0143C36.5716 11.1409 36.4436 11.3127 36.4424 11.4921ZM50.6457 37.7848C50.4191 37.8985 50.1122 37.9624 49.7923 37.9624C49.4729 37.9624 49.1665 37.8985 48.9407 37.7847C48.7148 37.6709 48.5879 37.5166 48.5879 37.3557V2.64403C48.5879 2.48311 48.7148 2.32879 48.9407 2.21501C49.1665 2.10122 49.4729 2.0373 49.7923 2.0373C50.1122 2.03729 50.4191 2.10114 50.6457 2.21486C50.8723 2.32858 51.0002 2.48289 51.0015 2.64403V37.3557C51.0002 37.5168 50.8723 37.6711 50.6457 37.7848ZM57.0747 20.0553V11.4921C57.0735 11.3127 56.9456 11.1409 56.7189 11.0143C56.4923 10.8877 56.1855 10.8166 55.8656 10.8166C55.5461 10.8166 55.2398 10.8878 55.0139 11.0145C54.788 11.1411 54.6611 11.313 54.6611 11.4921V28.5076C54.6611 28.6867 54.788 28.8586 55.0139 28.9853C55.2398 29.112 55.5461 29.1831 55.8656 29.1831C56.1855 29.1831 56.4923 29.112 56.7189 28.9854C56.9456 28.8588 57.0735 28.687 57.0747 28.5076V20.0553ZM63.1576 5.85133V20.0564V34.1506C63.1563 34.33 63.0284 34.5018 62.8018 34.6284C62.5751 34.755 62.2683 34.8261 61.9484 34.8261C61.6285 34.8261 61.3217 34.755 61.0951 34.6284C60.8684 34.5018 60.7405 34.33 60.7393 34.1506V5.85133C60.7405 5.67192 60.8684 5.50009 61.0951 5.37348C61.3217 5.24686 61.6285 5.17578 61.9484 5.17578C62.2683 5.17578 62.5751 5.24686 62.8018 5.37348C63.0284 5.50009 63.1563 5.67192 63.1576 5.85133ZM69.2339 20.0458V14.768C69.2339 14.5886 69.1072 14.4165 68.8814 14.2894C68.6557 14.1623 68.3493 14.0905 68.0295 14.0898C67.7088 14.0898 67.4012 14.1613 67.1745 14.2885C66.9477 14.4157 66.8203 14.5882 66.8203 14.768V25.2338C66.8203 25.4137 66.9477 25.5862 67.1745 25.7133C67.4012 25.8405 67.7088 25.912 68.0295 25.912C68.3493 25.9113 68.6557 25.8395 68.8814 25.7124C69.1072 25.5853 69.2339 25.4132 69.2339 25.2338V20.0458ZM75.3062 11.4921V20.0553V28.5076C75.3049 28.687 75.177 28.8588 74.9504 28.9854C74.7237 29.112 74.4169 29.1831 74.097 29.1831C73.7776 29.1831 73.4712 29.112 73.2454 28.9853C73.0195 28.8586 72.8926 28.6867 72.8926 28.5076V11.4921C72.8926 11.313 73.0195 11.1411 73.2454 11.0145C73.4712 10.8878 73.7776 10.8166 74.097 10.8166C74.4169 10.8166 74.7237 10.8877 74.9504 11.0143C75.177 11.1409 75.3049 11.3127 75.3062 11.4921ZM81.3794 20.0561V6.56618C81.3794 6.38701 81.2525 6.21519 81.0266 6.0885C80.8008 5.96181 80.4944 5.89063 80.175 5.89063C80.0164 5.89028 79.8593 5.9075 79.7126 5.94129C79.5659 5.97509 79.4326 6.0248 79.3203 6.08756C79.2079 6.15033 79.1188 6.22491 79.058 6.30704C78.9971 6.38918 78.9658 6.47724 78.9658 6.56618V33.4352C78.9658 33.5241 78.9971 33.6122 79.058 33.6943C79.1188 33.7764 79.2079 33.851 79.3203 33.9138C79.4326 33.9765 79.5659 34.0263 79.7126 34.06C79.8593 34.0938 80.0164 34.1111 80.175 34.1107C80.4944 34.1107 80.8008 34.0395 81.0266 33.9128C81.2525 33.7862 81.3794 33.6143 81.3794 33.4352V20.0561ZM87.4527 13.5603V20.0546V26.438C87.4514 26.6174 87.3235 26.7892 87.0969 26.9159C86.8702 27.0425 86.5634 27.1136 86.2435 27.1136C85.9241 27.1136 85.6177 27.0424 85.3918 26.9157C85.166 26.789 85.0391 26.6172 85.0391 26.438V13.5603C85.0391 13.3811 85.166 13.2093 85.3918 13.0826C85.6177 12.9559 85.9241 12.8848 86.2435 12.8848C86.5634 12.8848 86.8702 12.9558 87.0969 13.0825C87.3235 13.2091 87.4514 13.3809 87.4527 13.5603ZM93.5249 20.0557V17.8496C93.5237 17.6702 93.3957 17.4983 93.1691 17.3717C92.9425 17.2451 92.6357 17.174 92.3158 17.174C91.9963 17.174 91.69 17.2452 91.4641 17.3719C91.2382 17.4986 91.1113 17.6704 91.1113 17.8496V22.1509C91.1113 22.3301 91.2382 22.5019 91.4641 22.6286C91.69 22.7553 91.9963 22.8265 92.3158 22.8265C92.6357 22.8265 92.9425 22.7554 93.1691 22.6288C93.3957 22.5022 93.5237 22.3303 93.5249 22.1509V20.0557ZM97.1895 17.8496V20.0557V22.1509C97.1907 22.3303 97.3186 22.5022 97.5453 22.6288C97.7719 22.7554 98.0787 22.8265 98.3986 22.8265C98.718 22.8265 99.0244 22.7553 99.2503 22.6286C99.4762 22.5019 99.6031 22.3301 99.6031 22.1509V17.8496C99.6031 17.6704 99.4762 17.4986 99.2503 17.3719C99.0244 17.2452 98.718 17.174 98.3986 17.174C98.0787 17.174 97.7719 17.2451 97.5453 17.3717C97.3186 17.4983 97.1907 17.6702 97.1895 17.8496ZM103.266 20.0546V13.5603C103.267 13.3809 103.395 13.2091 103.621 13.0825C103.848 12.9558 104.155 12.8848 104.475 12.8848C104.794 12.8848 105.101 12.9559 105.326 13.0826C105.552 13.2093 105.679 13.3811 105.679 13.5603V26.438C105.679 26.6172 105.552 26.789 105.326 26.9157C105.101 27.0424 104.794 27.1136 104.475 27.1136C104.155 27.1136 103.848 27.0425 103.621 26.9159C103.395 26.7892 103.267 26.6174 103.266 26.438V20.0546ZM109.339 6.56618V20.0561V33.4352C109.339 33.6143 109.466 33.7862 109.692 33.9128C109.918 34.0395 110.224 34.1107 110.543 34.1107C110.702 34.1111 110.859 34.0938 111.006 34.06C111.152 34.0263 111.286 33.9765 111.398 33.9138C111.51 33.851 111.6 33.7764 111.66 33.6943C111.721 33.6122 111.752 33.5241 111.752 33.4352V6.56618C111.752 6.47724 111.721 6.38918 111.66 6.30704C111.6 6.22491 111.51 6.15033 111.398 6.08756C111.286 6.0248 111.152 5.97509 111.006 5.94129C110.859 5.9075 110.702 5.89028 110.543 5.89063C110.224 5.89063 109.918 5.96181 109.692 6.0885C109.466 6.21519 109.339 6.38701 109.339 6.56618ZM115.412 20.0553V11.4921C115.413 11.3127 115.541 11.1409 115.768 11.0143C115.995 10.8877 116.301 10.8166 116.621 10.8166C116.941 10.8166 117.247 10.8878 117.473 11.0145C117.699 11.1411 117.826 11.313 117.826 11.4921V28.5076C117.826 28.6867 117.699 28.8586 117.473 28.9853C117.247 29.112 116.941 29.1831 116.621 29.1831C116.301 29.1831 115.995 29.112 115.768 28.9854C115.541 28.8588 115.413 28.687 115.412 28.5076V20.0553ZM121.484 14.768V20.0458V25.2338C121.484 25.4132 121.611 25.5853 121.837 25.7124C122.063 25.8395 122.369 25.9113 122.689 25.912C123.01 25.912 123.317 25.8405 123.544 25.7133C123.771 25.5862 123.898 25.4137 123.898 25.2338V14.768C123.898 14.5882 123.771 14.4157 123.544 14.2885C123.317 14.1613 123.01 14.0898 122.689 14.0898C122.369 14.0905 122.063 14.1623 121.837 14.2894C121.611 14.4165 121.484 14.5886 121.484 14.768ZM127.559 20.0564V5.85133C127.56 5.67192 127.688 5.50009 127.914 5.37348C128.141 5.24686 128.448 5.17578 128.768 5.17578C129.088 5.17578 129.394 5.24686 129.621 5.37348C129.848 5.50009 129.976 5.67192 129.977 5.85133V34.1506C129.976 34.33 129.848 34.5018 129.621 34.6284C129.394 34.755 129.088 34.8261 128.768 34.8261C128.448 34.8261 128.141 34.755 127.914 34.6284C127.688 34.5018 127.56 34.33 127.559 34.1506V20.0564ZM133.638 11.4921V20.0553V28.5076C133.639 28.687 133.767 28.8588 133.993 28.9854C134.22 29.112 134.527 29.1831 134.847 29.1831C135.166 29.1831 135.473 29.112 135.699 28.9853C135.924 28.8586 136.051 28.6867 136.051 28.5076V11.4921C136.051 11.313 135.924 11.1411 135.699 11.0145C135.473 10.8878 135.166 10.8166 134.847 10.8166C134.527 10.8166 134.22 10.8877 133.993 11.0143C133.767 11.1409 133.639 11.3127 133.638 11.4921ZM140.922 40C140.602 40 140.295 39.9289 140.069 39.8023C139.842 39.6757 139.714 39.5039 139.713 39.3244V0.67555C139.714 0.496141 139.842 0.324321 140.069 0.197706C140.295 0.0710908 140.602 0 140.922 0C141.241 0 141.548 0.0711766 141.774 0.197867C142 0.324557 142.126 0.496383 142.126 0.67555V39.3244C142.126 39.5036 142 39.6754 141.774 39.8021C141.548 39.9288 141.241 40 140.922 40ZM147.847 36.7693C147.62 36.8765 147.313 36.9367 146.994 36.9367C146.674 36.9367 146.368 36.8764 146.142 36.7691C145.916 36.6619 145.789 36.5164 145.789 36.3646V3.63651C145.789 3.48479 145.916 3.33929 146.142 3.23201C146.368 3.12473 146.674 3.06445 146.994 3.06445C147.313 3.06445 147.62 3.12465 147.847 3.23187C148.073 3.33909 148.201 3.48459 148.203 3.63651V36.3646C148.201 36.5166 148.073 36.6621 147.847 36.7693ZM154.276 20.0553V11.4921C154.275 11.3127 154.147 11.1409 153.92 11.0143C153.693 10.8877 153.387 10.8166 153.067 10.8166C152.747 10.8166 152.441 10.8878 152.215 11.0145C151.989 11.1411 151.862 11.313 151.862 11.4921V28.5076C151.862 28.6867 151.989 28.8586 152.215 28.9853C152.441 29.112 152.747 29.1831 153.067 29.1831C153.387 29.1831 153.693 29.112 153.92 28.9854C154.147 28.8588 154.275 28.687 154.276 28.5076V20.0553ZM160.349 5.85133V20.0564V34.1506C160.348 34.33 160.22 34.5018 159.993 34.6284C159.767 34.755 159.46 34.8261 159.14 34.8261C158.821 34.8261 158.514 34.755 158.288 34.6283C158.062 34.5016 157.936 34.3297 157.936 34.1506V5.85133C157.936 5.67216 158.062 5.50033 158.288 5.37364C158.514 5.24695 158.821 5.17578 159.14 5.17578C159.46 5.17578 159.767 5.24686 159.993 5.37348C160.22 5.50009 160.348 5.67192 160.349 5.85133ZM166.413 20.0563V14.7786C166.416 14.6892 166.388 14.6004 166.329 14.5172C166.27 14.4341 166.183 14.3583 166.072 14.2942C165.961 14.2302 165.828 14.1791 165.681 14.144C165.535 14.1089 165.377 14.0905 165.218 14.0898C164.897 14.0898 164.59 14.1613 164.363 14.2885C164.136 14.4157 164.009 14.5882 164.009 14.768V25.2338C164.009 25.4137 164.136 25.5862 164.363 25.7133C164.59 25.8405 164.897 25.912 165.218 25.912C165.377 25.912 165.534 25.8944 165.68 25.8603C165.826 25.8262 165.959 25.7762 166.071 25.7132C166.183 25.6502 166.272 25.5754 166.332 25.4931C166.392 25.4109 166.423 25.3227 166.422 25.2338L166.413 20.0563ZM172.498 11.4921V20.0553V28.5076C172.498 28.6867 172.371 28.8586 172.145 28.9853C171.919 29.112 171.613 29.1831 171.293 29.1831C170.973 29.1831 170.666 29.112 170.44 28.9854C170.213 28.8588 170.085 28.687 170.084 28.5076V11.4921C170.085 11.3127 170.213 11.1409 170.44 11.0143C170.666 10.8877 170.973 10.8166 171.293 10.8166C171.613 10.8166 171.919 10.8878 172.145 11.0145C172.371 11.1411 172.498 11.313 172.498 11.4921ZM178.577 20.0561V6.56618C178.577 6.47724 178.546 6.38918 178.485 6.30704C178.425 6.22491 178.335 6.15033 178.223 6.08756C178.111 6.0248 177.977 5.97509 177.831 5.94129C177.684 5.9075 177.527 5.89028 177.368 5.89063C177.21 5.89028 177.053 5.9075 176.906 5.94129C176.759 5.97509 176.626 6.0248 176.514 6.08756C176.401 6.15033 176.312 6.22491 176.251 6.30704C176.19 6.38918 176.159 6.47724 176.159 6.56618V33.4352C176.159 33.5241 176.19 33.6122 176.251 33.6943C176.312 33.7764 176.401 33.851 176.514 33.9138C176.626 33.9765 176.759 34.0263 176.906 34.06C177.053 34.0938 177.21 34.1111 177.368 34.1107C177.527 34.1111 177.684 34.0938 177.831 34.06C177.977 34.0263 178.111 33.9765 178.223 33.9138C178.335 33.851 178.425 33.7764 178.485 33.6943C178.546 33.6122 178.577 33.5241 178.577 33.4352V20.0561ZM184.652 13.5603V20.0546V26.438C184.652 26.6172 184.525 26.789 184.299 26.9157C184.073 27.0424 183.767 27.1136 183.447 27.1136C183.128 27.1136 182.821 27.0425 182.594 26.9159C182.367 26.7892 182.24 26.6174 182.238 26.438V13.5603C182.24 13.3809 182.367 13.2091 182.594 13.0825C182.821 12.9558 183.128 12.8848 183.447 12.8848C183.767 12.8848 184.073 12.9559 184.299 13.0826C184.525 13.2093 184.652 13.3811 184.652 13.5603ZM190.727 20.0557V17.8496C190.726 17.6702 190.598 17.4983 190.371 17.3717C190.145 17.2451 189.838 17.174 189.518 17.174C189.198 17.174 188.892 17.2452 188.666 17.3719C188.44 17.4986 188.313 17.6704 188.313 17.8496V22.1509C188.313 22.3301 188.44 22.5019 188.666 22.6286C188.892 22.7553 189.198 22.8265 189.518 22.8265C189.838 22.8265 190.145 22.7554 190.371 22.6288C190.598 22.5022 190.726 22.3303 190.727 22.1509V20.0557ZM194.387 17.8496V20.0557V22.1509C194.387 22.3301 194.514 22.5019 194.74 22.6286C194.965 22.7553 195.272 22.8265 195.591 22.8265C195.911 22.8265 196.218 22.7554 196.445 22.6288C196.671 22.5022 196.799 22.3303 196.8 22.1509V17.8496C196.799 17.6702 196.671 17.4983 196.445 17.3717C196.218 17.2451 195.911 17.174 195.591 17.174C195.272 17.174 194.965 17.2452 194.74 17.3719C194.514 17.4986 194.387 17.6704 194.387 17.8496ZM200.46 20.0552V13.5609C200.458 13.4712 200.488 13.3822 200.548 13.299C200.608 13.2158 200.697 13.1401 200.809 13.0762C200.922 13.0124 201.056 12.9618 201.203 12.9272C201.351 12.8926 201.509 12.8748 201.669 12.8748C201.989 12.8748 202.296 12.9459 202.523 13.0725C202.749 13.1991 202.877 13.371 202.878 13.5504V26.428C202.883 26.5187 202.855 26.6088 202.796 26.6933C202.737 26.7777 202.649 26.8546 202.536 26.9196C202.423 26.9845 202.289 27.0361 202.14 27.0714C201.991 27.1066 201.831 27.1247 201.669 27.1247C201.349 27.1247 201.042 27.0536 200.816 26.927C200.589 26.8004 200.461 26.6286 200.46 26.4492V20.0552ZM206.539 6.56618V20.0561V33.4352C206.539 33.5241 206.57 33.6122 206.631 33.6943C206.692 33.7764 206.781 33.851 206.894 33.9138C207.006 33.9765 207.139 34.0263 207.286 34.06C207.433 34.0938 207.59 34.1111 207.748 34.1107C208.068 34.1107 208.374 34.0395 208.6 33.9128C208.826 33.7862 208.953 33.6143 208.953 33.4352V6.56618C208.953 6.38701 208.826 6.21519 208.6 6.0885C208.374 5.96181 208.068 5.89063 207.748 5.89063C207.59 5.89028 207.433 5.9075 207.286 5.94129C207.139 5.97509 207.006 6.0248 206.894 6.08756C206.781 6.15033 206.692 6.22491 206.631 6.30704C206.57 6.38918 206.539 6.47724 206.539 6.56618ZM212.614 20.0553V11.4921C212.614 11.313 212.741 11.1411 212.967 11.0145C213.193 10.8878 213.499 10.8166 213.819 10.8166C214.139 10.8166 214.445 10.8877 214.672 11.0143C214.899 11.1409 215.027 11.3127 215.028 11.4921V28.5076C215.027 28.687 214.899 28.8588 214.672 28.9854C214.445 29.112 214.139 29.1831 213.819 29.1831C213.499 29.1831 213.193 29.112 212.967 28.9853C212.741 28.8586 212.614 28.6867 212.614 28.5076V20.0553ZM218.688 14.768V20.0458V25.2338C218.688 25.4137 218.815 25.5862 219.042 25.7133C219.268 25.8405 219.576 25.912 219.897 25.912C220.055 25.912 220.212 25.8944 220.359 25.8603C220.505 25.8262 220.638 25.7762 220.75 25.7132C220.862 25.6502 220.951 25.5754 221.011 25.4931C221.071 25.4109 221.102 25.3227 221.101 25.2338V14.768C221.102 14.6791 221.071 14.591 221.011 14.5087C220.951 14.4264 220.862 14.3516 220.75 14.2886C220.638 14.2256 220.505 14.1756 220.359 14.1415C220.212 14.1074 220.055 14.0898 219.897 14.0898C219.576 14.0898 219.268 14.1613 219.042 14.2885C218.815 14.4157 218.688 14.5882 218.688 14.768ZM224.765 20.0564V5.85133C224.766 5.67192 224.894 5.50009 225.12 5.37348C225.347 5.24686 225.654 5.17578 225.974 5.17578C226.293 5.17578 226.6 5.24695 226.825 5.37364C227.051 5.50033 227.178 5.67216 227.178 5.85133V34.1506C227.178 34.3297 227.051 34.5016 226.825 34.6283C226.6 34.755 226.293 34.8261 225.974 34.8261C225.654 34.8261 225.347 34.755 225.12 34.6284C224.894 34.5018 224.766 34.33 224.765 34.1506V20.0564ZM230.838 11.4921V20.0553V28.5076C230.838 28.6867 230.965 28.8586 231.191 28.9853C231.417 29.112 231.723 29.1831 232.042 29.1831C232.362 29.1831 232.669 29.112 232.896 28.9854C233.122 28.8588 233.25 28.687 233.251 28.5076V11.4921C233.25 11.3127 233.122 11.1409 232.896 11.0143C232.669 10.8877 232.362 10.8166 232.042 10.8166C231.723 10.8166 231.417 10.8878 231.191 11.0145C230.965 11.1411 230.838 11.313 230.838 11.4921ZM238.116 40C237.796 40 237.49 39.9288 237.264 39.8021C237.038 39.6754 236.911 39.5036 236.911 39.3244V0.67555C236.911 0.496383 237.038 0.324557 237.264 0.197867C237.49 0.0711766 237.796 0 238.116 0C238.435 0 238.742 0.0710908 238.969 0.197706C239.196 0.324321 239.323 0.496141 239.325 0.67555V39.3244C239.323 39.5039 239.196 39.6757 238.969 39.8023C238.742 39.9289 238.435 40 238.116 40ZM245.046 23.3801C244.82 23.5068 244.514 23.578 244.195 23.578C243.875 23.578 243.568 23.5069 243.341 23.3803C243.115 23.2537 242.987 23.0819 242.985 22.9025V17.0994C242.987 16.92 243.115 16.7481 243.341 16.6215C243.568 16.4949 243.875 16.4238 244.195 16.4238C244.514 16.4238 244.82 16.495 245.046 16.6217C245.272 16.7484 245.399 16.9202 245.399 17.0994V22.9025C245.399 23.0816 245.272 23.2535 245.046 23.3801ZM251.472 20.0553V11.4921C251.472 11.313 251.345 11.1411 251.119 11.0145C250.894 10.8878 250.587 10.8166 250.268 10.8166C249.948 10.8166 249.641 10.8877 249.414 11.0143C249.188 11.1409 249.06 11.3127 249.059 11.4921V28.5076C249.06 28.687 249.188 28.8588 249.414 28.9854C249.641 29.112 249.948 29.1831 250.268 29.1831C250.587 29.1831 250.894 29.112 251.119 28.9853C251.345 28.8586 251.472 28.6867 251.472 28.5076V20.0553ZM257.548 5.85133V20.0564V34.1506C257.548 34.3297 257.421 34.5016 257.196 34.6283C256.97 34.755 256.663 34.8261 256.344 34.8261C256.024 34.8261 255.717 34.755 255.491 34.6284C255.264 34.5018 255.136 34.33 255.135 34.1506V5.85133C255.136 5.67192 255.264 5.50009 255.491 5.37348C255.717 5.24686 256.024 5.17578 256.344 5.17578C256.663 5.17578 256.97 5.24695 257.196 5.37364C257.421 5.50033 257.548 5.67216 257.548 5.85133ZM263.622 20.0458V14.768C263.622 14.5882 263.494 14.4157 263.267 14.2885C263.041 14.1613 262.733 14.0898 262.412 14.0898C262.093 14.0905 261.786 14.1623 261.56 14.2894C261.335 14.4165 261.208 14.5886 261.208 14.768V25.2338C261.208 25.4132 261.335 25.5853 261.56 25.7124C261.786 25.8395 262.093 25.9113 262.412 25.912C262.733 25.912 263.041 25.8405 263.267 25.7133C263.494 25.5862 263.622 25.4137 263.622 25.2338V20.0458ZM269.702 11.4921V20.0553V28.5076C269.701 28.687 269.573 28.8588 269.347 28.9854C269.12 29.112 268.813 29.1831 268.493 29.1831C268.173 29.1831 267.867 29.112 267.64 28.9854C267.413 28.8588 267.285 28.687 267.284 28.5076V11.4921C267.285 11.3127 267.413 11.1409 267.64 11.0143C267.867 10.8877 268.173 10.8166 268.493 10.8166C268.813 10.8166 269.12 10.8877 269.347 11.0143C269.573 11.1409 269.701 11.3127 269.702 11.4921ZM275.776 20.0561V6.56618C275.776 6.47724 275.745 6.38918 275.684 6.30704C275.623 6.22491 275.534 6.15033 275.421 6.08756C275.309 6.0248 275.176 5.97509 275.029 5.94129C274.882 5.9075 274.725 5.89028 274.567 5.89063C274.247 5.89063 273.941 5.96181 273.715 6.0885C273.489 6.21519 273.362 6.38701 273.362 6.56618V33.4352C273.362 33.6143 273.489 33.7862 273.715 33.9128C273.941 34.0395 274.247 34.1107 274.567 34.1107C274.725 34.1111 274.882 34.0938 275.029 34.06C275.176 34.0263 275.309 33.9765 275.421 33.9138C275.534 33.851 275.623 33.7764 275.684 33.6943C275.745 33.6122 275.776 33.5241 275.776 33.4352V20.0561ZM281.852 13.5609V20.0552V26.4492C281.85 26.6286 281.723 26.8004 281.496 26.927C281.269 27.0536 280.962 27.1247 280.643 27.1247C280.481 27.1248 280.321 27.1066 280.173 27.0713C280.024 27.0361 279.89 26.9844 279.777 26.9194C279.665 26.8545 279.577 26.7775 279.519 26.6931C279.46 26.6087 279.433 26.5185 279.438 26.428V13.5504C279.438 13.3712 279.565 13.1994 279.791 13.0727C280.017 12.946 280.323 12.8748 280.643 12.8748C280.803 12.8748 280.961 12.8926 281.109 12.9272C281.256 12.9618 281.39 13.0124 281.503 13.0762C281.615 13.1401 281.704 13.2158 281.764 13.299C281.824 13.3822 281.854 13.4712 281.852 13.5609ZM287.923 20.0557V17.8496C287.923 17.6704 287.796 17.4986 287.571 17.3719C287.345 17.2452 287.038 17.174 286.719 17.174C286.399 17.174 286.092 17.2451 285.866 17.3717C285.639 17.4983 285.511 17.6702 285.51 17.8496V22.1509C285.511 22.3303 285.639 22.5022 285.866 22.6288C286.092 22.7554 286.399 22.8265 286.719 22.8265C287.038 22.8265 287.345 22.7553 287.571 22.6286C287.796 22.5019 287.923 22.3301 287.923 22.1509V20.0557ZM291.586 17.8496V20.0557V22.1509C291.587 22.3303 291.715 22.5022 291.942 22.6288C292.168 22.7554 292.475 22.8265 292.795 22.8265C293.115 22.8265 293.421 22.7553 293.647 22.6286C293.873 22.5019 294 22.3301 294 22.1509V17.8496C294 17.6704 293.873 17.4986 293.647 17.3719C293.421 17.2452 293.115 17.174 292.795 17.174C292.475 17.174 292.168 17.2451 291.942 17.3717C291.715 17.4983 291.587 17.6702 291.586 17.8496Z" fill="#231F20"/>
</g>
<defs>
<clipPath id="clip0_124_3626">
<rect width="273" height="40" fill="white"/>
</clipPath>
</defs>
</svg>
